<svg width="191" height="52" viewBox="0 0 191 52" fill="none" xmlns="http://www.w3.org/2000/svg">
    <path d="M0 32C0 21.5066 8.50659 13 19 13H148V51H19C8.50659 51 0 42.4934 0 32Z" fill="#2DFCE3"/>
    <path d="M143.346 4L129.553 19.9714C128.994 20.6193 129.454 21.625 130.31 21.625H138.375V51H148.625V21.625H156.661C157.522 21.625 157.981 20.6098 157.411 19.9639L143.346 4Z" fill="black"/>
    <path d="M100.015 2C99.0448 2.03 98.2948 2.84 98.3248 3.8C98.3348 4.04 98.3848 4.27 98.4848 4.5L98.7748 5.14C98.8148 5.27 98.7448 5.41 98.6048 5.45C98.5148 5.5 98.4148 5.45 98.3448 5.37L97.9248 4.82C97.5948 4.4 97.0948 4.14 96.5648 4.13C95.5948 4.11 94.7948 4.88 94.7748 5.84C94.7648 6.26 94.9048 6.66 95.1648 7L95.5848 7.5H95.5948C95.6748 7.63 95.6448 7.79 95.5348 7.87C95.4448 7.94 95.3248 7.94 95.2448 7.87L94.7148 7.45C94.3748 7.19 93.9648 7.05 93.5548 7.06C92.5948 7.08 91.8248 7.88 91.8448 8.85C91.8548 9.38 92.1148 9.88 92.5348 10.21L93.1048 10.65C93.2148 10.75 93.2148 10.91 93.0948 11C93.0619 11.0341 93.0193 11.0572 92.9728 11.0662C92.9262 11.0751 92.8781 11.0695 92.8348 11.05H92.8248L92.2148 10.77C91.9848 10.68 91.7548 10.62 91.5148 10.61C90.5548 10.58 89.7448 11.34 89.7148 12.31C89.7148 13.03 90.1148 13.69 90.7748 13.97L102.165 19.04L106.755 14.45L101.685 3.06C101.405 2.39 100.715 1.97 100.015 2ZM100.845 6.1C101.265 6.09 101.645 6.33 101.805 6.71L104.855 13.55L100.905 9.61L99.9748 7.5C99.6748 6.87 100.135 6.12 100.845 6.1ZM97.5648 8.85C97.8348 8.85 98.0848 8.95 98.2748 9.15L103.085 13.96C103.485 14.34 103.495 14.97 103.115 15.37C102.715 15.77 102.095 15.78 101.675 15.37L96.8648 10.56C96.7697 10.4694 96.6937 10.3608 96.6411 10.2405C96.5885 10.1201 96.5604 9.99051 96.5586 9.8592C96.5567 9.72789 96.5811 9.59752 96.6302 9.47574C96.6794 9.35396 96.7523 9.24322 96.8448 9.15C97.0348 8.95 97.2948 8.85 97.5648 8.85ZM94.8448 12.17C94.9748 12.17 95.1148 12.21 95.2148 12.26L97.3448 13.2L101.285 17.14L94.4248 14.09C93.4048 13.65 93.7448 12.14 94.8448 12.17ZM107.995 16.04L103.755 20.28L104.605 21.13C105.365 21.88 106.465 22.17 107.495 21.9C108.002 21.7614 108.464 21.493 108.836 21.1212C109.208 20.7495 109.476 20.2872 109.615 19.78C109.885 18.75 109.595 17.65 108.845 16.89L107.995 16.04Z" fill="black"/>
    <path d="M21.0195 32.7676H14.4453L14.4102 29.1465H19.9297C20.9023 29.1465 21.6992 29.0234 22.3203 28.7773C22.9414 28.5195 23.4043 28.1504 23.709 27.6699C24.0254 27.1777 24.1836 26.5801 24.1836 25.877C24.1836 25.0801 24.0312 24.4355 23.7266 23.9434C23.4336 23.4512 22.9707 23.0938 22.3379 22.8711C21.7168 22.6484 20.9141 22.5371 19.9297 22.5371H16.2734V44H11V18.4062H19.9297C21.418 18.4062 22.748 18.5469 23.9199 18.8281C25.1035 19.1094 26.1055 19.5371 26.9258 20.1113C27.7461 20.6855 28.373 21.4121 28.8066 22.291C29.2402 23.1582 29.457 24.1895 29.457 25.3848C29.457 26.4395 29.2168 27.4121 28.7363 28.3027C28.2676 29.1934 27.5234 29.9199 26.5039 30.4824C25.4961 31.0449 24.1777 31.3555 22.5488 31.4141L21.0195 32.7676ZM20.791 44H13.0039L15.0605 39.8867H20.791C21.7168 39.8867 22.4727 39.7402 23.0586 39.4473C23.6445 39.1426 24.0781 38.7324 24.3594 38.2168C24.6406 37.7012 24.7812 37.1094 24.7812 36.4414C24.7812 35.6914 24.6523 35.041 24.3945 34.4902C24.1484 33.9395 23.75 33.5176 23.1992 33.2246C22.6484 32.9199 21.9219 32.7676 21.0195 32.7676H15.9395L15.9746 29.1465H22.3027L23.5156 30.5703C25.0742 30.5469 26.3281 30.8223 27.2773 31.3965C28.2383 31.959 28.9355 32.6914 29.3691 33.5938C29.8145 34.4961 30.0371 35.4629 30.0371 36.4941C30.0371 38.1348 29.6797 39.5176 28.9648 40.6426C28.25 41.7559 27.2012 42.5938 25.8184 43.1562C24.4473 43.7188 22.7715 44 20.791 44Z" fill="black"/>
    <path d="M43.9414 39.7109V31.2383C43.9414 30.6289 43.8418 30.1074 43.6426 29.6738C43.4434 29.2285 43.1328 28.8828 42.7109 28.6367C42.3008 28.3906 41.7676 28.2676 41.1113 28.2676C40.5488 28.2676 40.0625 28.3672 39.6523 28.5664C39.2422 28.7539 38.9258 29.0293 38.7031 29.3926C38.4805 29.7441 38.3691 30.1602 38.3691 30.6406H33.3066C33.3066 29.832 33.4941 29.0645 33.8691 28.3379C34.2441 27.6113 34.7891 26.9727 35.5039 26.4219C36.2188 25.8594 37.0684 25.4199 38.0527 25.1035C39.0488 24.7871 40.1621 24.6289 41.3926 24.6289C42.8691 24.6289 44.1816 24.875 45.3301 25.3672C46.4785 25.8594 47.3809 26.5977 48.0371 27.582C48.7051 28.5664 49.0391 29.7969 49.0391 31.2734V39.4121C49.0391 40.4551 49.1035 41.3105 49.2324 41.9785C49.3613 42.6348 49.5488 43.209 49.7949 43.7012V44H44.6797C44.4336 43.4844 44.2461 42.8398 44.1172 42.0664C44 41.2812 43.9414 40.4961 43.9414 39.7109ZM44.6094 32.416L44.6445 35.2812H41.8145C41.1465 35.2812 40.5664 35.3574 40.0742 35.5098C39.582 35.6621 39.1777 35.8789 38.8613 36.1602C38.5449 36.4297 38.3105 36.7461 38.1582 37.1094C38.0176 37.4727 37.9473 37.8711 37.9473 38.3047C37.9473 38.7383 38.0469 39.1309 38.2461 39.4824C38.4453 39.8223 38.7324 40.0918 39.1074 40.291C39.4824 40.4785 39.9219 40.5723 40.4258 40.5723C41.1875 40.5723 41.8496 40.4199 42.4121 40.1152C42.9746 39.8105 43.4082 39.4355 43.7129 38.9902C44.0293 38.5449 44.1934 38.123 44.2051 37.7246L45.541 39.8691C45.3535 40.3496 45.0957 40.8477 44.7676 41.3633C44.4512 41.8789 44.0469 42.3652 43.5547 42.8223C43.0625 43.2676 42.4707 43.6367 41.7793 43.9297C41.0879 44.2109 40.2676 44.3516 39.3184 44.3516C38.1113 44.3516 37.0156 44.1113 36.0312 43.6309C35.0586 43.1387 34.2852 42.4648 33.7109 41.6094C33.1484 40.7422 32.8672 39.7578 32.8672 38.6562C32.8672 37.6602 33.0547 36.7754 33.4297 36.002C33.8047 35.2285 34.3555 34.5781 35.082 34.0508C35.8203 33.5117 36.7402 33.1074 37.8418 32.8379C38.9434 32.5566 40.2207 32.416 41.6738 32.416H44.6094Z" fill="black"/>
    <path d="M64.1738 39.8516V17H69.2715V44H64.6836L64.1738 39.8516ZM52.1504 34.7188V34.3496C52.1504 32.8965 52.3145 31.5781 52.6426 30.3945C52.9707 29.1992 53.4512 28.1738 54.084 27.3184C54.7168 26.4629 55.4961 25.8008 56.4219 25.332C57.3477 24.8633 58.4023 24.6289 59.5859 24.6289C60.6992 24.6289 61.6719 24.8633 62.5039 25.332C63.3477 25.8008 64.0625 26.4688 64.6484 27.3359C65.2461 28.1914 65.7266 29.2051 66.0898 30.377C66.4531 31.5371 66.7168 32.8086 66.8809 34.1914V35C66.7168 36.3242 66.4531 37.5547 66.0898 38.6914C65.7266 39.8281 65.2461 40.8242 64.6484 41.6797C64.0625 42.5234 63.3477 43.1797 62.5039 43.6484C61.6602 44.1172 60.6758 44.3516 59.5508 44.3516C58.3672 44.3516 57.3125 44.1113 56.3867 43.6309C55.4727 43.1504 54.6992 42.4766 54.0664 41.6094C53.4453 40.7422 52.9707 39.7227 52.6426 38.5508C52.3145 37.3789 52.1504 36.1016 52.1504 34.7188ZM57.2129 34.3496V34.7188C57.2129 35.5039 57.2715 36.2363 57.3887 36.916C57.5176 37.5957 57.7227 38.1992 58.0039 38.7266C58.2969 39.2422 58.6719 39.6465 59.1289 39.9395C59.5977 40.2207 60.166 40.3613 60.834 40.3613C61.7012 40.3613 62.416 40.168 62.9785 39.7812C63.541 39.3828 63.9688 38.8379 64.2617 38.1465C64.5664 37.4551 64.7422 36.6582 64.7891 35.7559V33.4531C64.7539 32.7148 64.6484 32.0527 64.4727 31.4668C64.3086 30.8691 64.0625 30.3594 63.7344 29.9375C63.418 29.5156 63.0195 29.1875 62.5391 28.9531C62.0703 28.7188 61.5137 28.6016 60.8691 28.6016C60.2129 28.6016 59.6504 28.7539 59.1816 29.0586C58.7129 29.3516 58.332 29.7559 58.0391 30.2715C57.7578 30.7871 57.5469 31.3965 57.4062 32.0996C57.2773 32.791 57.2129 33.541 57.2129 34.3496Z" fill="black"/>
    <path d="M78.2891 28.918V44H73.209V24.9805H77.9727L78.2891 28.918ZM77.5859 33.8223H76.1797C76.1797 32.498 76.3379 31.2793 76.6543 30.166C76.9824 29.041 77.457 28.0684 78.0781 27.248C78.7109 26.416 79.4902 25.7715 80.416 25.3145C81.3418 24.8574 82.4141 24.6289 83.6328 24.6289C84.4766 24.6289 85.25 24.7578 85.9531 25.0156C86.6562 25.2617 87.2598 25.6543 87.7637 26.1934C88.2793 26.7207 88.6777 27.4121 88.959 28.2676C89.2402 29.1113 89.3809 30.125 89.3809 31.3086V44H84.3184V31.8711C84.3184 31.0039 84.2012 30.3359 83.9668 29.8672C83.7324 29.3984 83.3984 29.0703 82.9648 28.8828C82.543 28.6953 82.0332 28.6016 81.4355 28.6016C80.7793 28.6016 80.2051 28.7363 79.7129 29.0059C79.2324 29.2754 78.834 29.6504 78.5176 30.1309C78.2012 30.5996 77.9668 31.1504 77.8145 31.7832C77.6621 32.416 77.5859 33.0957 77.5859 33.8223ZM88.9062 33.2422L87.0957 33.4707C87.0957 32.2285 87.248 31.0742 87.5527 30.0078C87.8691 28.9414 88.332 28.0039 88.9414 27.1953C89.5625 26.3867 90.3301 25.7598 91.2441 25.3145C92.1582 24.8574 93.2129 24.6289 94.4082 24.6289C95.3223 24.6289 96.1543 24.7637 96.9043 25.0332C97.6543 25.291 98.293 25.707 98.8203 26.2812C99.3594 26.8438 99.7695 27.582 100.051 28.4961C100.344 29.4102 100.49 30.5293 100.49 31.8535V44H95.4102V31.8535C95.4102 30.9746 95.293 30.3066 95.0586 29.8496C94.8359 29.3809 94.5078 29.0586 94.0742 28.8828C93.6523 28.6953 93.1484 28.6016 92.5625 28.6016C91.9531 28.6016 91.4199 28.7246 90.9629 28.9707C90.5059 29.2051 90.125 29.5332 89.8203 29.9551C89.5156 30.377 89.2871 30.8691 89.1348 31.4316C88.9824 31.9824 88.9062 32.5859 88.9062 33.2422Z" fill="black"/>
    <path d="M109.754 24.9805V44H104.674V24.9805H109.754Z" fill="black"/>
    <path d="M118.895 29.041V44H113.832V24.9805H118.578L118.895 29.041ZM118.156 33.8223H116.785C116.785 32.416 116.967 31.1504 117.33 30.0254C117.693 28.8887 118.203 27.9219 118.859 27.125C119.516 26.3164 120.295 25.7012 121.197 25.2793C122.111 24.8457 123.131 24.6289 124.256 24.6289C125.146 24.6289 125.961 24.7578 126.699 25.0156C127.438 25.2734 128.07 25.6836 128.598 26.2461C129.137 26.8086 129.547 27.5527 129.828 28.4785C130.121 29.4043 130.268 30.5352 130.268 31.8711V44H125.17V31.8535C125.17 31.0098 125.053 30.3535 124.818 29.8848C124.584 29.416 124.238 29.0879 123.781 28.9004C123.336 28.7012 122.785 28.6016 122.129 28.6016C121.449 28.6016 120.857 28.7363 120.354 29.0059C119.861 29.2754 119.451 29.6504 119.123 30.1309C118.807 30.5996 118.566 31.1504 118.402 31.7832C118.238 32.416 118.156 33.0957 118.156 33.8223Z" fill="black"/>
    <path d="M152.574 34.6836V34.3145C152.574 32.9199 152.773 31.6367 153.172 30.4648C153.57 29.2812 154.15 28.2559 154.912 27.3887C155.674 26.5215 156.611 25.8477 157.725 25.3672C158.838 24.875 160.115 24.6289 161.557 24.6289C162.998 24.6289 164.281 24.875 165.406 25.3672C166.531 25.8477 167.475 26.5215 168.236 27.3887C169.01 28.2559 169.596 29.2812 169.994 30.4648C170.393 31.6367 170.592 32.9199 170.592 34.3145V34.6836C170.592 36.0664 170.393 37.3496 169.994 38.5332C169.596 39.7051 169.01 40.7305 168.236 41.6094C167.475 42.4766 166.537 43.1504 165.424 43.6309C164.311 44.1113 163.033 44.3516 161.592 44.3516C160.15 44.3516 158.867 44.1113 157.742 43.6309C156.629 43.1504 155.686 42.4766 154.912 41.6094C154.15 40.7305 153.57 39.7051 153.172 38.5332C152.773 37.3496 152.574 36.0664 152.574 34.6836ZM157.637 34.3145V34.6836C157.637 35.4805 157.707 36.2246 157.848 36.916C157.988 37.6074 158.211 38.2168 158.516 38.7441C158.832 39.2598 159.242 39.6641 159.746 39.957C160.25 40.25 160.865 40.3965 161.592 40.3965C162.295 40.3965 162.898 40.25 163.402 39.957C163.906 39.6641 164.311 39.2598 164.615 38.7441C164.92 38.2168 165.143 37.6074 165.283 36.916C165.436 36.2246 165.512 35.4805 165.512 34.6836V34.3145C165.512 33.541 165.436 32.8145 165.283 32.1348C165.143 31.4434 164.914 30.834 164.598 30.3066C164.293 29.7676 163.889 29.3457 163.385 29.041C162.881 28.7363 162.271 28.584 161.557 28.584C160.842 28.584 160.232 28.7363 159.729 29.041C159.236 29.3457 158.832 29.7676 158.516 30.3066C158.211 30.834 157.988 31.4434 157.848 32.1348C157.707 32.8145 157.637 33.541 157.637 34.3145Z" fill="black"/>
    <path d="M178.766 28.6367V51.3125H173.703V24.9805H178.396L178.766 28.6367ZM190.807 34.2793V34.6484C190.807 36.0312 190.643 37.3145 190.314 38.498C189.998 39.6816 189.529 40.7129 188.908 41.5918C188.287 42.459 187.514 43.1387 186.588 43.6309C185.674 44.1113 184.619 44.3516 183.424 44.3516C182.264 44.3516 181.256 44.1172 180.4 43.6484C179.545 43.1797 178.824 42.5234 178.238 41.6797C177.664 40.8242 177.201 39.834 176.85 38.709C176.498 37.584 176.229 36.377 176.041 35.0879V34.1211C176.229 32.7383 176.498 31.4727 176.85 30.3242C177.201 29.1641 177.664 28.1621 178.238 27.3184C178.824 26.4629 179.539 25.8008 180.383 25.332C181.238 24.8633 182.24 24.6289 183.389 24.6289C184.596 24.6289 185.656 24.8574 186.57 25.3145C187.496 25.7715 188.27 26.4277 188.891 27.2832C189.523 28.1387 189.998 29.1582 190.314 30.3418C190.643 31.5254 190.807 32.8379 190.807 34.2793ZM185.727 34.6484V34.2793C185.727 33.4707 185.656 32.7266 185.516 32.0469C185.387 31.3555 185.176 30.752 184.883 30.2363C184.602 29.7207 184.227 29.3223 183.758 29.041C183.301 28.748 182.744 28.6016 182.088 28.6016C181.396 28.6016 180.805 28.7129 180.312 28.9355C179.832 29.1582 179.439 29.4805 179.135 29.9023C178.83 30.3242 178.602 30.8281 178.449 31.4141C178.297 32 178.203 32.6621 178.168 33.4004V35.8438C178.227 36.7109 178.391 37.4902 178.66 38.1816C178.93 38.8613 179.346 39.4004 179.908 39.7988C180.471 40.1973 181.209 40.3965 182.123 40.3965C182.791 40.3965 183.354 40.25 183.811 39.957C184.268 39.6523 184.637 39.2363 184.918 38.709C185.211 38.1816 185.416 37.5723 185.533 36.8809C185.662 36.1895 185.727 35.4453 185.727 34.6484Z" fill="black"/>
</svg>
